# xmcd CD database file
#
# Track frame offsets:
#	150
#	10882
#	24457
#	40767
#	51875
#	64375
#	78460
#	90820
#	106420
#	120257
#	132315
#	144447
#	157555
#	169957
#
# Disc length: 2456 seconds
#
# Revision: 2
# Processed by: cddbd v1.5.2PL0 Copyright (c) Steve Scherf et al.
# Submitted via: CDex 1.51
#
DISCID=a509960e
DTITLE=Robert Jr. Lockwood - Steady Rollin' Man
DYEAR=1972
DGENRE=Blues
TTITLE0=Steady Rollin' Man
TTITLE1=Western Horizon
TTITLE2=Take A Walk With Me
TTITLE3=Steady Groove
TTITLE4=Mean Red Spider
TTITLE5=Lockwood's Boogie
TTITLE6=Ramblin' On My Mind
TTITLE7=Blues And Trouble
TTITLE8=Worst Old Feeling
TTITLE9=Kindhearted Woman Blues
TTITLE10=Can't Stand The Pain
TTITLE11=Tanya
TTITLE12=Worst Old Feeling (Alternate Take)
TTITLE13=Lockwood's Boogie (Alternate Take)
EXTD=YEAR: 1972
EXTT0=
EXTT1=
EXTT2=
EXTT3=
EXTT4=
EXTT5=
EXTT6=
EXTT7=
EXTT8=
EXTT9=
EXTT10=
EXTT11=
EXTT12=
EXTT13=
PLAYORDER=
